v  -282.8471 58.1624 84.3807
v  -288.7374 58.1624 81.6340
v  -288.7374 0.0000 81.6340
v  -282.8471 0.0000 84.3807
v  -280.1004 58.1624 78.4904
v  -280.1004 0.0000 78.4904
v  -285.9907 58.1624 75.7437
v  -285.9907 0.0000 75.7437
v  -240.4915 129.6356 96.9603
v  -246.3819 129.6356 94.2136
v  -249.1286 129.6356 100.1039
v  -243.2382 129.6356 102.8506
v  -249.1286 0.0000 100.1039
v  -243.2382 0.0000 102.8506
v  -240.4915 0.0000 96.9603
v  -246.3819 0.0000 94.2136
v  -299.9549 58.1624 121.0686
v  -305.8452 58.1624 118.3219
v  -305.8452 0.0000 118.3219
v  -299.9549 0.0000 121.0686
v  -297.2082 58.1624 115.1783
v  -297.2082 0.0000 115.1783
v  -303.0985 58.1624 112.4316
v  -303.0985 0.0000 112.4316
v  -257.5994 129.6356 133.6482
v  -263.4897 129.6356 130.9015
v  -266.2364 129.6356 136.7918
v  -260.3461 129.6356 139.5385
v  -266.2364 0.0000 136.7918
v  -260.3461 0.0000 139.5385
v  -257.5994 0.0000 133.6482
v  -263.4897 0.0000 130.9015
v  -244.0786 115.5718 101.7674
v  -259.0029 115.5718 133.7726
v  -262.4904 115.5718 132.1464
v  -247.5661 115.5718 100.1411
v  -244.0786 125.0417 101.7674
v  -247.5661 125.0417 100.1411
v  -262.4904 125.0417 132.1464
v  -259.0029 125.0417 133.7726
v  -244.0786 97.4131 101.7674
v  -259.0029 97.4131 133.7726
v  -262.4904 97.4131 132.1464
v  -247.5661 97.4131 100.1411
v  -244.0786 106.8831 101.7674
v  -247.5661 106.8831 100.1411
v  -262.4904 106.8831 132.1464
v  -259.0029 106.8831 133.7726
v  -246.3510 54.5779 94.0610
v  -266.4748 54.5780 137.2166
v  -309.0373 54.5780 117.3694
v  -288.9135 54.5779 74.2138
v  -246.3510 62.0071 94.0610
v  -288.9135 62.0071 74.2138
v  -309.0373 62.0071 117.3693
v  -266.4748 62.0071 137.2166
# 56 vertices

vn 0.0000 -0.0000 1.0000
vn 1.0000 0.0000 -0.0000
vn 0.0000 0.0000 -1.0000
vn -1.0000 0.0000 -0.0000
vn 0.0000 1.0000 -0.0000
vn 0.0000 0.0000 1.0000
vn 0.0000 -1.0000 -0.0000
vn 0.0000 -1.0000 0.0000
vn 0.0000 -0.0000 -1.0000
# 9 vertex normals

vt 0.8203 0.0100 0.0000
vt 0.8565 0.0100 0.0000
vt 0.8565 0.3344 0.0000
vt 0.8203 0.3344 0.0000
vt 0.7618 0.0100 0.0000
vt 0.7981 0.0100 0.0000
vt 0.7981 0.3344 0.0000
vt 0.7618 0.3344 0.0000
vt 0.8787 0.0100 0.0000
vt 0.9150 0.0100 0.0000
vt 0.9150 0.3344 0.0000
vt 0.8787 0.3344 0.0000
vt 0.0100 0.5856 0.0000
vt 0.0463 0.5856 0.0000
vt 0.0463 0.9100 0.0000
vt 0.0100 0.9100 0.0000
vt 0.5280 0.7915 0.0000
vt 0.5280 0.7553 0.0000
vt 0.5642 0.7553 0.0000
vt 0.5642 0.7915 0.0000
vt 0.6449 0.0100 0.0000
vt 0.6811 0.0100 0.0000
vt 0.6811 0.7331 0.0000
vt 0.6449 0.7331 0.0000
vt 0.2942 0.0100 0.0000
vt 0.3304 0.0100 0.0000
vt 0.3304 0.7331 0.0000
vt 0.2942 0.7331 0.0000
vt 0.4111 0.0100 0.0000
vt 0.4473 0.0100 0.0000
vt 0.4473 0.7331 0.0000
vt 0.4111 0.7331 0.0000
vt 0.3526 0.0100 0.0000
vt 0.3889 0.0100 0.0000
vt 0.3889 0.7331 0.0000
vt 0.3526 0.7331 0.0000
vt 0.1269 0.5856 0.0000
vt 0.1632 0.5856 0.0000
vt 0.1632 0.9100 0.0000
vt 0.1269 0.9100 0.0000
vt 0.0685 0.5856 0.0000
vt 0.1047 0.5856 0.0000
vt 0.1047 0.9100 0.0000
vt 0.0685 0.9100 0.0000
vt 0.8203 0.3566 0.0000
vt 0.8565 0.3566 0.0000
vt 0.8565 0.6810 0.0000
vt 0.8203 0.6810 0.0000
vt 0.7618 0.3566 0.0000
vt 0.7981 0.3566 0.0000
vt 0.7981 0.6810 0.0000
vt 0.7618 0.6810 0.0000
vt 0.5864 0.7915 0.0000
vt 0.5864 0.7553 0.0000
vt 0.6227 0.7553 0.0000
vt 0.6227 0.7915 0.0000
vt 0.7034 0.0100 0.0000
vt 0.7396 0.0100 0.0000
vt 0.7396 0.7331 0.0000
vt 0.7034 0.7331 0.0000
vt 0.5280 0.0100 0.0000
vt 0.5642 0.0100 0.0000
vt 0.5642 0.7331 0.0000
vt 0.5280 0.7331 0.0000
vt 0.5864 0.0100 0.0000
vt 0.6227 0.0100 0.0000
vt 0.6227 0.7331 0.0000
vt 0.5864 0.7331 0.0000
vt 0.4695 0.0100 0.0000
vt 0.5058 0.0100 0.0000
vt 0.5058 0.7331 0.0000
vt 0.4695 0.7331 0.0000
vt 0.2942 0.9523 0.0000
vt 0.2942 0.7553 0.0000
vt 0.3156 0.7553 0.0000
vt 0.3156 0.9523 0.0000
vt 0.4695 0.7553 0.0000
vt 0.4910 0.7553 0.0000
vt 0.4910 0.9523 0.0000
vt 0.4695 0.9523 0.0000
vt 0.9350 0.9772 0.0000
vt 0.9350 0.7802 0.0000
vt 0.9878 0.7802 0.0000
vt 0.9878 0.9772 0.0000
vt 0.9372 0.2070 0.0000
vt 0.9372 0.0100 0.0000
vt 0.9900 0.0100 0.0000
vt 0.9900 0.2070 0.0000
vt 0.3526 0.9523 0.0000
vt 0.3526 0.7553 0.0000
vt 0.3741 0.7553 0.0000
vt 0.3741 0.9523 0.0000
vt 0.4111 0.7553 0.0000
vt 0.4325 0.7553 0.0000
vt 0.4325 0.9523 0.0000
vt 0.4111 0.9523 0.0000
vt 0.9350 0.7654 0.0000
vt 0.9350 0.5684 0.0000
vt 0.9878 0.5684 0.0000
vt 0.9878 0.7654 0.0000
vt 0.9350 0.5536 0.0000
vt 0.9350 0.3566 0.0000
vt 0.9878 0.3566 0.0000
vt 0.9878 0.5536 0.0000
vt 0.0100 0.2756 0.0000
vt 0.0100 0.0100 0.0000
vt 0.2720 0.0100 0.0000
vt 0.2720 0.2756 0.0000
vt 0.0100 0.2978 0.0000
vt 0.2720 0.2978 0.0000
vt 0.2720 0.5634 0.0000
vt 0.0100 0.5634 0.0000
vt 0.8787 0.6186 0.0000
vt 0.8787 0.3566 0.0000
vt 0.9202 0.3566 0.0000
vt 0.9202 0.6186 0.0000
vt 0.1854 0.8512 0.0000
vt 0.1854 0.5856 0.0000
vt 0.2268 0.5856 0.0000
vt 0.2268 0.8512 0.0000
vt 0.8203 0.9652 0.0000
vt 0.8203 0.7033 0.0000
vt 0.8617 0.7033 0.0000
vt 0.8617 0.9652 0.0000
vt 0.7618 0.9689 0.0000
vt 0.7618 0.7033 0.0000
vt 0.8032 0.7033 0.0000
vt 0.8032 0.9689 0.0000
# 128 texture coords

g stolac_01
usemtl stolac_01
s 8
f 1/1/1 2/2/1 3/3/1 4/4/1 
s 16
f 5/5/2 1/6/2 4/7/2 6/8/2 
s 32
f 7/9/3 5/10/3 6/11/3 8/12/3 
s 64
f 2/13/4 7/14/4 8/15/4 3/16/4 
s 4
f 9/17/5 10/18/5 11/19/5 12/20/5 
s 8
f 12/21/1 11/22/1 13/23/1 14/24/1 
s 16
f 9/25/2 12/26/2 14/27/2 15/28/2 
s 32
f 10/29/3 9/30/3 15/31/3 16/32/3 
s 64
f 11/33/4 10/34/4 16/35/4 13/36/4 
s 8
f 17/37/6 18/38/6 19/39/6 20/40/6 
s 16
f 21/41/2 17/42/2 20/43/2 22/44/2 
s 32
f 23/45/3 21/46/3 22/47/3 24/48/3 
s 64
f 18/49/4 23/50/4 24/51/4 19/52/4 
s 4
f 25/53/5 26/54/5 27/55/5 28/56/5 
s 8
f 28/57/6 27/58/6 29/59/6 30/60/6 
s 16
f 25/61/2 28/62/2 30/63/2 31/64/2 
s 32
f 26/65/3 25/66/3 31/67/3 32/68/3 
s 64
f 27/69/4 26/70/4 32/71/4 29/72/4 
s 2
f 33/73/7 34/74/7 35/75/7 36/76/7 
s 4
f 37/77/5 38/78/5 39/79/5 40/80/5 
s 16
f 37/81/2 40/82/2 34/83/2 33/84/2 
s 64
f 39/85/4 38/86/4 36/87/4 35/88/4 
s 2
f 41/89/7 42/90/7 43/91/7 44/92/7 
s 4
f 45/93/5 46/94/5 47/95/5 48/96/5 
s 16
f 45/97/2 48/98/2 42/99/2 41/100/2 
s 64
f 47/101/4 46/102/4 44/103/4 43/104/4 
s 2
f 49/105/8 50/106/8 51/107/8 52/108/8 
s 4
f 53/109/5 54/110/5 55/111/5 56/112/5 
s 8
f 56/113/6 55/114/6 51/115/6 50/116/6 
s 16
f 53/117/2 56/118/2 50/119/2 49/120/2 
s 32
f 54/121/9 53/122/9 49/123/9 52/124/9 
s 64
f 55/125/4 54/126/4 52/127/4 51/128/4 
# 32 polygons

