v  -509.7412 300.0000 -200.0000
v  -509.7412 0.0000 -200.0000
v  300.0000 0.0000 -200.0000
v  300.0000 300.0000 -200.0000
v  -509.7412 300.0000 200.0000
v  -509.7412 0.0000 200.0000
v  300.0000 300.0000 200.0000
v  300.0000 0.0000 200.0000
# 8 vertices

vn 0.0000 0.0000 1.0000
vn 1.0000 0.0000 -0.0000
vn 0.0000 0.0000 -1.0000
vn -1.0000 0.0000 -0.0000
vn 0.0000 1.0000 -0.0000
vn 0.0000 -1.0000 -0.0000
# 6 vertex normals

vt 0.5371 0.5765 0.0000
vt 0.5371 0.7718 0.0000
vt 0.0100 0.7718 0.0000
vt 0.0100 0.5765 0.0000
vt 0.8187 0.5765 0.0000
vt 0.8187 0.7718 0.0000
vt 0.5583 0.7718 0.0000
vt 0.5583 0.5765 0.0000
vt 0.5371 0.7947 0.0000
vt 0.5371 0.9900 0.0000
vt 0.0100 0.9900 0.0000
vt 0.0100 0.7947 0.0000
vt 0.8183 0.7947 0.0000
vt 0.8183 0.9900 0.0000
vt 0.5579 0.9900 0.0000
vt 0.5579 0.7947 0.0000
vt 0.5371 0.2704 0.0000
vt 0.0100 0.2704 0.0000
vt 0.0100 0.0100 0.0000
vt 0.5371 0.0100 0.0000
vt 0.0100 0.5537 0.0000
vt 0.0100 0.2933 0.0000
vt 0.5371 0.2933 0.0000
vt 0.5371 0.5537 0.0000
# 24 texture coords

g soba
usemtl soba
s 1
f 1/1/1 2/2/1 3/3/1 4/4/1 
s 4
f 5/5/2 6/6/2 2/7/2 1/8/2 
s 2
f 7/9/3 8/10/3 6/11/3 5/12/3 
s 4
f 4/13/4 3/14/4 8/15/4 7/16/4 
s 16
f 6/17/5 8/18/5 3/19/5 2/20/5 
f 4/21/6 7/22/6 5/23/6 1/24/6 
# 6 polygons

